PathFileType	4	(X/Y/Z)	Kaydara																																																																																																																																																																																																																																																	
DataRate	CameraRate	NumFrames	NumMarkers	Units	OrigDataRate	OrigDataStartFrame	OrigNumFrames																																																																																																																																																																																																																																													
30	30	4	41	mm	30	31	273																																																																																																																																																																																																																																													
Frame#	Time	SALE_LFHD			SALE_RFHD			SALE_LBHD			SALE_RBHD			SALE_LFTShould			SALE_RFTShould			SALE_LRRShould			SALE_RRRShould			SALE_T10			SALE_STRN			SALE_TRUN			SALE_LSHO			SALE_LUPA			SALE_LELB			SALE_LFRM			SALE_LWRA			SALE_LWRB			SALE_LFIN			SALE_RSHO			SALE_RUPA			SALE_RELB			SALE_RFRM			SALE_RWRB			SALE_RFIN			SALE_LFWT			SALE_RFWT			SALE_LBWT			SALE_RBWT			SALE_LTHI			SALE_LKNE			SALE_RWRA			SALE_LSHN			SALE_LANK			SALE_LHEE			SALE_LTOE			SALE_RTHI			SALE_RKNE			SALE_RSHN			SALE_RANK			SALE_RHEE			SALE_RTOE																																																																																																																										
		X1	Y1	Z1	X2	Y2	Z2	X3	Y3	Z3	X4	Y4	Z4	X5	Y5	Z5	X6	Y6	Z6	X7	Y7	Z7	X8	Y8	Z8	X9	Y9	Z9	X10	Y10	Z10	X11	Y11	Z11	X12	Y12	Z12	X13	Y13	Z13	X14	Y14	Z14	X15	Y15	Z15	X16	Y16	Z16	X17	Y17	Z17	X18	Y18	Z18	X19	Y19	Z19	X20	Y20	Z20	X21	Y21	Z21	X22	Y22	Z22	X23	Y23	Z23	X24	Y24	Z24	X25	Y25	Z25	X26	Y26	Z26	X27	Y27	Z27	X28	Y28	Z28	X29	Y29	Z29	X30	Y30	Z30	X31	Y31	Z31	X32	Y32	Z32	X33	Y33	Z33	X34	Y34	Z34	X35	Y35	Z35	X36	Y36	Z36	X37	Y37	Z37	X38	Y38	Z38	X39	Y39	Z39	X40	Y40	Z40	X41	Y41	Z41																																																																																																																							Y81	Z81
																																																																																																																																																																																																																																																				
1	1	215.28025	1636.36078	-1972.62787	85.63521	1632.36893	-1978.99231	217.6437	1657.28287	-2104.73999	91.92974	1651.44897	-2103.97507	231.92974	1400.25391	-2039.86816	90.74294	1398.04398	-2041.84158	228.25485	1443.73566	-2159.61349	76.63056	1449.92859	-2153.76755	151.79628	1286.4415	-2213.38333	156.09808	1332.46185	-1985.26459	153.0219	1249.83521	-1937.02789	349.32217	1416.4566	-2105.3093	390.79376	1199.95972	-2088.89191	377.74879	1088.58139	-2092.72751	395.43957	987.33589	-2039.61548	315.34555	864.15878	-1967.13165	387.70359	849.01398	-1990.29938	373.79684	815.91537	-1936.70807	-17.01825	1421.34842	-2106.6655	-56.31261	1190.18898	-2153.4256	-78.59522	1091.07765	-2100.47333	-73.00813	978.15338	-2106.36932	-81.56893	841.81694	-2053.05695	-81.49012	804.33098	-1997.13028	283.07034	977.31812	-1986.23306	3.11829	973.66173	-2008.73123	236.68056	1044.81911	-2155.47028	59.63483	1047.42371	-2170.03296	295.75268	676.63307	-2150.13504	278.14297	506.11164	-2071.53885	-28.79013	855.97343	-2006.30646	273.92467	308.58942	-2072.0752	275.75085	124.01594	-2119.655	245.12774	74.90617	-2184.93607	235.02001	86.43661	-1987.81235	4.51604	721.60507	-2167.05536	23.83403	562.37671	-2062.83173	77.67339	375.22854	-2077.53326	33.19438	124.17009	-2129.74197	44.4373	78.11598	-2008.89511	78.64437	63.13251	-2198.7027																																																																																																																							0	-0.00191
2	1.033	215.07235	1635.52689	-1971.6745	85.38609	1631.6687	-1978.29285	217.61904	1657.61612	-2103.52554	91.90111	1651.89377	-2103.0397	231.47623	1400.27527	-2039.63974	90.49016	1398.00903	-2042.0285	228.16456	1443.74557	-2159.46503	76.53533	1449.832	-2154.05289	151.87937	1286.31683	-2213.35388	155.57563	1332.67502	-1985.10406	152.11651	1250.01907	-1936.77628	349.11156	1416.53122	-2104.95239	390.9462	1200.1709	-2088.97491	378.13999	1088.76892	-2092.95944	396.42193	987.3925	-2040.4538	317.08687	863.18504	-1968.75534	389.36695	848.73779	-1991.9931	375.64682	815.17616	-1938.67233	-17.21994	1421.29333	-2107.17026	-56.40542	1190.14343	-2153.95966	-79.03132	1091.07018	-2101.00616	-73.52525	978.13438	-2106.83304	-82.47203	841.83525	-2053.57773	-82.66576	804.34563	-1997.66937	282.55751	977.23473	-1985.81116	2.60479	973.50868	-2008.91129	236.55918	1044.88113	-2155.15457	59.579	1047.5193	-2170.21408	295.63505	676.62895	-2150.03159	277.946	506.09756	-2071.6301	-29.95374	855.84846	-2006.68808	273.79862	308.62997	-2072.13577	275.70524	124.03894	-2119.67896	245.09529	74.87905	-2184.94568	235.01575	86.45576	-1987.78824	4.43891	721.67862	-2167.55478	23.53528	562.40196	-2063.27774	77.46431	375.30098	-2077.7739	33.12176	124.15226	-2129.81354	44.38607	78.11232	-2008.95233	78.63103	63.11306	-2198.68484																																																																																																																							0	-0.00191
3	1.067	214.71222	1634.69559	-1970.79346	85.02832	1630.99625	-1977.63535	217.52167	1657.9216	-2102.39899	91.81899	1652.32651	-2102.19055	231.07182	1400.24414	-2039.41544	90.02995	1397.93976	-2042.25677	228.03219	1443.66623	-2159.27551	76.3904	1449.74243	-2154.31152	151.87764	1286.23657	-2213.24768	155.11646	1332.76978	-1984.99771	151.57494	1250.18341	-1936.63712	348.89675	1416.53214	-2104.64096	391.14227	1200.2108	-2089.38004	378.42686	1088.81897	-2093.60153	397.49947	987.28195	-2042.12051	318.87659	862.03949	-1971.46027	391.24683	848.17017	-1994.90829	377.8754	813.964	-1941.90979	-17.46048	1421.19202	-2107.68097	-56.52314	1190.0592	-2154.33105	-79.62192	1091.25229	-2101.52008	-74.10925	978.04832	-2107.13989	-83.391	841.89674	-2053.96973	-83.86606	804.4442	-1997.97394	281.98837	977.26791	-1985.35873	2.09756	973.45863	-2009.10995	236.43623	1044.90372	-2154.84909	59.47085	1047.55234	-2170.31738	295.47079	676.63345	-2149.86908	277.7409	506.08639	-2071.64871	-30.95311	855.80101	-2006.8573	273.71925	308.65517	-2072.16537	275.66254	124.07172	-2119.70795	245.03202	74.84393	-2184.94858	235.04736	86.43891	-1987.81921	4.41515	721.68777	-2167.93228	23.17795	562.37736	-2063.68423	77.20942	375.36957	-2078.11234	33.07969	124.12564	-2129.92493	44.36634	78.11795	-2008.95294	78.63461	63.1247	-2198.68912																																																																																																																							0	-0.00191
4	1.1	214.26897	1633.92105	-1969.86359	84.79994	1630.39215	-1976.88385	217.33179	1658.18634	-2101.3382	91.67078	1652.71637	-2101.2265	230.62475	1400.1535	-2039.13376	89.57046	1397.89673	-2042.29156	227.81996	1443.62671	-2159.08005	76.19498	1449.68033	-2154.38965	151.78533	1286.13968	-2213.17825	154.685	1332.77313	-1984.92752	151.01329	1250.05226	-1936.48788	348.54683	1416.37482	-2104.18045	391.25072	1200.35728	-2089.92523	378.72993	1088.88748	-2094.74701	398.58143	987.08946	-2044.43329	320.9911	860.47333	-1975.14923	393.29548	847.36259	-1998.83713	380.22865	812.42729	-1946.27289	-17.72428	1421.15891	-2108.01544	-56.76213	1189.96262	-2154.60495	-80.06892	1091.19423	-2101.7514	-74.65038	978.06595	-2107.35886	-84.18926	841.87363	-2054.07684	-84.9158	804.50089	-1998.08197	281.35443	977.2686	-1984.88647	1.55621	973.36494	-2009.05701	236.27998	1044.92386	-2154.55536	59.34597	1047.55287	-2170.37888	295.2037	676.64383	-2149.58664	277.40086	505.94963	-2071.50192	-31.96658	855.77835	-2006.88278	273.53861	308.61607	-2072.02881	275.56515	124.12248	-2119.70505	244.98655	74.96576	-2184.95605	235.03874	86.42973	-1987.76703	4.42328	721.72173	-2168.23074	22.80182	562.35638	-2063.93021	77.01884	375.43697	-2078.28613	33.00767	124.10059	-2130.03662	44.32157	78.06344	-2008.86078	78.64698	63.12336	-2198.68866																																																																																																																							0	-0.00191
